# xmcd
#
# Track frame offsets: 
#        150
#        20666
#        39270
#        58736
#        77716
#
# Disc length: 1372 seconds
#
# Revision: 0
# Processed by: cddbd v1.5.2PL0 Copyright (c) Steve Scherf et al.
# Submitted via: ExactAudioCopy v1.3
#
DISCID=36055a05
DTITLE=Eliazar Espinoza - Formless
DYEAR=2018
DGENRE=Country
TTITLE0=The Deliverer
TTITLE1=Out Again
TTITLE2=Formless
TTITLE3=From The Ashes
TTITLE4=If You Fall
EXTD=
EXTT0=
EXTT1=
EXTT2=
EXTT3=
EXTT4=
PLAYORDER=
